<svg width="74" height="72" viewBox="0 0 74 72" fill="none" xmlns="http://www.w3.org/2000/svg">
<path fill-rule="evenodd" clip-rule="evenodd" d="M1.23159 1.82737C0.935921 2.96075 0.689532 4.11878 0.590977 5.2768C0.270672 9.36685 -0.0989094 23.0907 0.0242848 25.8502C0.0242848 26.688 0.172117 27.6242 0.517061 28.388C1.13303 29.7432 2.70992 29.8417 3.57228 28.5851C3.89258 28.1417 4.08969 27.5503 4.18825 26.9836C4.45927 25.3328 4.68102 23.682 4.80422 22.0312C5.14916 17.0542 5.46947 12.0525 5.69122 7.07544C5.76513 5.42464 5.59266 3.7492 5.39555 2.09839C5.24772 0.866452 4.23752 -0.0698244 3.30125 0.00409208C2.1925 0.102647 1.50261 0.817173 1.23159 1.82737ZM35.192 33.5742L35.192 33.5741L35.192 33.574C35.3585 32.8519 35.508 32.2034 35.726 31.5663C38.929 22.105 44.0786 13.6785 49.9426 5.67085C50.6325 4.73457 51.4948 3.84758 52.4558 3.25624C52.9732 2.93594 54.008 2.98522 54.5993 3.30552C55.0428 3.55191 55.3631 4.51282 55.2646 5.05488C55.0921 6.08971 54.7225 7.14918 54.2051 8.08546C50.805 14.2698 47.3802 20.4295 43.9061 26.5646C42.8842 28.3577 41.8171 30.1357 40.7519 31.9104L40.7517 31.9108C40.4557 32.4039 40.1599 32.8967 39.8653 33.3895C39.4218 34.1533 38.929 34.8925 38.4116 35.5824C37.8449 36.3708 36.9826 36.839 36.1202 36.3216C36.0658 36.2884 36.0109 36.2562 35.9562 36.2241L35.9561 36.224C35.4408 35.9215 34.9375 35.6261 34.9375 34.6461C35.032 34.2683 35.1139 33.9132 35.192 33.5742ZM69.8261 71.334C69.4308 71.2681 69.0135 71.2077 68.5833 71.1455L68.5832 71.1454C67.7265 71.0215 66.8189 70.8902 65.9332 70.6934L65.933 70.6933C60.685 69.5107 55.437 68.328 50.2136 67.0961C49.0802 66.8251 47.9715 66.3569 46.9613 65.8149C45.6062 65.1003 45.138 64.0902 45.3598 62.9814C45.5815 61.8727 46.4685 61.1828 48.0208 61.1581C49.0802 61.1335 50.2136 61.1581 51.2238 61.4045C57.8517 63.08 64.4795 64.8047 71.0827 66.554C71.8219 66.7512 72.5857 67.0961 73.1524 67.5889C74.5814 68.7962 74.1379 70.6934 72.3147 71.1615C71.863 71.2705 71.372 71.2811 70.8292 71.2928H70.8292C70.5132 71.2996 70.1797 71.3068 69.8261 71.334Z" fill="#6776FF"/>
</svg>
